<svg width="1208" height="1272" viewBox="0 0 1208 1272" fill="none" xmlns="http://www.w3.org/2000/svg">
<path fill-rule="evenodd" clip-rule="evenodd" d="M352.55 1110.15C269.227 1110.15 201.681 1046.38 201.681 967.721V682.869H151.391C106.587 682.869 84.1495 631.732 115.83 601.824L568.44 174.547C588.079 156.007 619.921 156.007 639.56 174.547L1092.17 601.824C1123.85 631.732 1101.41 682.869 1056.61 682.869H1006.32V967.721C1006.32 1046.38 938.773 1110.15 855.45 1110.15H352.55ZM604 275.257L269.618 590.924C288.687 597.671 302.26 615.036 302.26 635.394V967.721C302.26 993.941 324.776 1015.2 352.55 1015.2L453.13 1015.15L453.13 825.295C453.13 772.855 498.161 730.345 553.71 730.345H654.29C709.839 730.345 754.87 772.855 754.87 825.295L754.869 1015.15L855.45 1015.2C883.224 1015.2 905.739 993.941 905.739 967.721V635.394C905.739 615.036 919.313 597.671 938.382 590.924L604 275.257ZM654.29 825.295H553.71V1015.15H654.29V825.295Z" fill="black"/>
<rect x="1.61719" y="1.29785" width="1204.85" height="1269.16" stroke="white" stroke-width="2"/>
</svg>
